<?xml version="1.0" encoding="utf-8"?>
<!-- Generator: Adobe Illustrator 23.0.2, SVG Export Plug-In . SVG Version: 6.00 Build 0)  -->
<svg version="1.1" id="Layer_1" xmlns="http://www.w3.org/2000/svg" xmlns:xlink="http://www.w3.org/1999/xlink" x="0px" y="0px"
	 viewBox="0 0 534 442" style="enable-background:new 0 0 534 442;" xml:space="preserve">
<style type="text/css">
	.st0{clip-path:url(#SVGID_2_);}
	.st1{fill:#37BC9B;}
	.st2{fill:#F2F2F2;}
	.st3{opacity:0.7;}
	.st4{opacity:0.7;fill:url(#SVGID_3_);enable-background:new    ;}
	.st5{fill:#6C63FF;}
	.st6{opacity:0.1;enable-background:new    ;}
	.st7{fill:#EEEEEE;}
	.st8{fill:none;stroke:#873F3F;stroke-width:8;stroke-miterlimit:10;}
	.st9{opacity:0.7;fill:url(#SVGID_4_);enable-background:new    ;}
	.st10{fill:#CCCCCC;}
	.st11{fill:none;stroke:#BDBDBD;stroke-width:5;stroke-miterlimit:10;}
	.st12{fill:#B84733;}
	.st13{fill:#E9573F;}
	.st14{fill:#3F3D56;}
	.st15{opacity:5.000000e-02;enable-background:new    ;}
	.st16{fill:#FDA57D;}
	.st17{fill:#2F2E41;}
	.st18{fill:#495057;}
	.st19{fill:url(#SVGID_5_);}
	.st20{fill:#873F3F;}
	.st21{fill:#535461;}
	.st22{opacity:0.7;fill:url(#SVGID_6_);enable-background:new    ;}
	.st23{fill:#3E3F49;}
	.st24{fill:#E0E0E0;}
</style>
<g>
	<defs>
		<rect id="SVGID_1_" width="534" height="442"/>
	</defs>
	<clipPath id="SVGID_2_">
		<use xlink:href="#SVGID_1_"  style="overflow:visible;"/>
	</clipPath>
	<g class="st0">
		<path class="st1" d="M452.9,355.6c0,26.7,15.9,36.1,35.5,36.1c0.5,0,0.9,0,1.4,0c0.9,0,1.8-0.1,2.7-0.1
			c17.7-1.3,31.4-11.1,31.4-35.9c0-25.7-32.9-58.2-35.3-60.6l0,0c-0.1-0.1-0.1-0.1-0.1-0.1S452.9,328.8,452.9,355.6z"/>
		<path class="st2" d="M489.7,387.5l-13-18.1l13,20.1l0,2.1c0.9,0,1.8-0.1,2.7-0.1l-1.4-26.7l0-0.2l0,0l-0.1-2.5l13-20.2l-13.1,18.3
			l0,0.5l-1.1-20.2l11.2-20.8l-11.3,17.3l-1.1-41.9l0-0.1v0.1l0.2,33l-11.1-13.1l11.2,15.9l0.3,18.1l-10.4-17.4l10.4,20l0.2,10.1
			l-15.1-24.2l15.1,27.7L489.7,387.5z"/>
		<g class="st3">
			
				<linearGradient id="SVGID_3_" gradientUnits="userSpaceOnUse" x1="480.8295" y1="246.148" x2="480.8295" y2="282.191" gradientTransform="matrix(-1 0 0 -1 534 444)">
				<stop  offset="0" style="stop-color:#808080;stop-opacity:0.25"/>
				<stop  offset="0.5351" style="stop-color:#808080;stop-opacity:0.12"/>
				<stop  offset="1" style="stop-color:#808080;stop-opacity:0.1"/>
			</linearGradient>
			<path class="st4" d="M41.3,168.2v-6.4h32.2v29.8c0,1.7-0.7,3.3-1.8,4.4c-1.2,1.2-2.8,1.8-4.4,1.8H47.5c-1.7,0-3.3-0.7-4.4-1.8
				c-1.2-1.2-1.8-2.8-1.8-4.4V185c-2.2,0-4.3-0.9-5.9-2.4c-1.6-1.6-2.5-3.7-2.5-5.9c0-2.2,0.9-4.3,2.5-5.9
				C36.9,169.1,39,168.2,41.3,168.2z M41.3,181.8v-10.3c-1.4,0-2.7,0.5-3.6,1.5c-1,1-1.5,2.3-1.5,3.6c0,1.4,0.5,2.7,1.5,3.6
				C38.6,181.2,39.9,181.8,41.3,181.8z"/>
		</g>
		<path class="st5" d="M42.3,169.3c1.5,0,3,0.4,4.2,1.3c1.3,0.8,2.2,2,2.8,3.4c0.6,1.4,0.7,2.9,0.4,4.4c-0.3,1.5-1,2.8-2.1,3.9
			c-1.1,1.1-2.4,1.8-3.9,2.1s-3,0.1-4.4-0.4c-1.4-0.6-2.6-1.6-3.4-2.8c-0.8-1.3-1.3-2.7-1.3-4.2c0-2,0.8-4,2.2-5.4
			C38.3,170.1,40.3,169.3,42.3,169.3z M42.3,181.6c0.9,0,1.8-0.3,2.6-0.8c0.8-0.5,1.4-1.3,1.7-2.1c0.4-0.9,0.4-1.8,0.3-2.7
			c-0.2-0.9-0.6-1.8-1.3-2.4c-0.7-0.7-1.5-1.1-2.4-1.3c-0.9-0.2-1.9-0.1-2.7,0.3c-0.9,0.4-1.6,1-2.1,1.7c-0.5,0.8-0.8,1.7-0.8,2.6
			c0,1.2,0.5,2.4,1.4,3.3C39.9,181.1,41,181.6,42.3,181.6z"/>
		<path class="st6" d="M42.3,169.3c1.5,0,3,0.4,4.2,1.3c1.3,0.8,2.2,2,2.8,3.4c0.6,1.4,0.7,2.9,0.4,4.4c-0.3,1.5-1,2.8-2.1,3.9
			c-1.1,1.1-2.4,1.8-3.9,2.1s-3,0.1-4.4-0.4c-1.4-0.6-2.6-1.6-3.4-2.8c-0.8-1.3-1.3-2.7-1.3-4.2c0-2,0.8-4,2.2-5.4
			C38.3,170.1,40.3,169.3,42.3,169.3z M42.3,181.6c0.9,0,1.8-0.3,2.6-0.8c0.8-0.5,1.4-1.3,1.7-2.1c0.4-0.9,0.4-1.8,0.3-2.7
			c-0.2-0.9-0.6-1.8-1.3-2.4c-0.7-0.7-1.5-1.1-2.4-1.3c-0.9-0.2-1.9-0.1-2.7,0.3c-0.9,0.4-1.6,1-2.1,1.7c-0.5,0.8-0.8,1.7-0.8,2.6
			c0,1.2,0.5,2.4,1.4,3.3C39.9,181.1,41,181.6,42.3,181.6z"/>
		<path class="st5" d="M71.7,163.4H42.3v27.1c0,1.5,0.6,3,1.7,4.1c1.1,1.1,2.5,1.7,4.1,1.7h17.9c1.5,0,3-0.6,4.1-1.7
			c1.1-1.1,1.7-2.5,1.7-4.1V163.4z"/>
		<path class="st6" d="M47.6,163.4v27.2c0,1.5,0.6,3,1.7,4.1c1.1,1.1,2.5,1.7,4.1,1.7h-2.9c-1.5,0-3-0.6-4.1-1.7
			c-1.1-1.1-1.7-2.5-1.7-4.1v-27.2H47.6z"/>
		<path class="st7" d="M65.9,141.5c0.3,0,0.5,0.1,0.7,0.2c0.2,0.1,0.4,0.3,0.6,0.5c0.4,0.7-0.3,1.5-1,2c-1.2,0.9-2.4,1.8-3.2,3
			c-0.8,1.2-1.1,3-0.2,4.2c1.1,1.6,3.9,1.9,4.1,3.8c0.2,1.2-0.9,2.3-2,2.9c-2.6,1.5-6.1,1.9-8,4.3c-0.8-1.6-2.6-2.6-4.3-3
			c-1.8-0.4-3.6-0.4-5.4-0.6c-0.3,0-0.6-0.1-0.8-0.2c-0.3-0.1-0.5-0.3-0.7-0.6c-0.5-1,0.9-2.2,0.4-3.3c-0.4-0.8-1.5-0.7-2.3-1
			c-1.3-0.5-1.9-2.2-1.5-3.5c0.4-1.4,1.4-2.4,2.5-3.3c3-2.3,6.6-3.7,10.2-4.7c1.7-0.5,3.7-1.2,5.4-1.3
			C62.3,140.7,64.2,141.2,65.9,141.5z"/>
		<path class="st8" d="M272.1,203.2l61.4,191.4"/>
		<g class="st3">
			
				<linearGradient id="SVGID_4_" gradientUnits="userSpaceOnUse" x1="215.232" y1="-363812" x2="215.232" y2="-33100.4063" gradientTransform="matrix(-1 0 0 -1 534 444)">
				<stop  offset="0" style="stop-color:#808080;stop-opacity:0.25"/>
				<stop  offset="0.5351" style="stop-color:#808080;stop-opacity:0.12"/>
				<stop  offset="1" style="stop-color:#808080;stop-opacity:0.1"/>
			</linearGradient>
			<path class="st9" d="M224.5,416.2c7.6,0.4,14.3,6.8,14.3,6.8l3.3-8.1l0.3,0.1c-1.6-7-34-150.5-1.6-162.8
				c24.9-9.5,51.3-21.3,72-20.8v-33.9h-29v-1.2h-23c-4.4-3.1,2-5.3,9.1-6.7c-0.3-0.3-0.5-0.7-0.8-1.1l-36.8-66c0,0-8.5-13.9-3-20.5
				c5.4-6.6,13.3,16.9,13.3,16.9l30.2,43.5c0,0,30.5-31.8,49.9-47.6c2.2-2.1,4.6-4,7.2-5.5c3.5-2.4,6.2-3.6,7.5-3.2c0,0,0,0,0,0
				c2.9-0.8,6-1.2,9-1.2h2.4v-5c-5.4-1.8-10.4-4.7-14.5-8.7c-4.1-3.9-7.4-8.7-9.4-14c-3.4-5.6-5.5-12-6.1-18.6
				c-0.6-6.6,0.3-13.2,2.6-19.4c-0.4,0-0.7-0.2-1-0.4c-1.1-0.7-1.2-2.2-1.1-3.5c0.4-4.4,1.8-8.5,4.2-12.2c2.4-3.7,5.6-6.7,9.4-8.8
				c3.1-1.7,6.6-2.8,8.8-5.5c1.9-2.3,2.8-5.5,5.1-7.3c2.8-2.2,6.8-1.8,10.2-0.8c3.8,1.1,7.4,2.8,10.7,5c3.7,2.5,7,5.8,11.3,7.2
				c3,1,6.3,1,9.4,1.9c2.3,0.7,4.5,2,6.2,3.7c1.8,1.7,3.1,3.8,3.9,6.1c0.8,2.5,1.1,5.1,0.9,7.7c1.9,3.1,3.3,6.4,4.3,9.9
				c0.2,0.1,0.5,0.2,0.7,0.4l-0.7-0.3c2.3,7.8,2.4,16.1,0.2,23.9c-2.2,7.8-6.5,14.9-12.5,20.4C387,93,380.6,97.6,373.2,100v6
				c5.3,1.1,10.3,3.2,14.8,6.1l0,0c0,0,0.4,0.2,1,0.7c0.1,0,0.1,0.1,0.2,0.1c4.5,3,19.5,14.1,18.9,26.1c0,0.5,0,0.9,0,1.4
				c0.8,3.5,1.2,7,1.2,10.6v86.9c0,9.6-3.2,18.9-9.2,26.5c12.6,2.8,20.6,7.1,20.6,11.9c-0.1,0.4-0.1,0.8,0,1.2
				c0,8.5-25.4,15.4-56.8,15.4c-3.8,0-7.5-0.1-11.1-0.3l-35.4,28.7l56.8,91.2c0,0,18.7,14.5,4.2,19.3c-14.5,4.8-44.1,8.5-44.1,8.5
				s-4.8-8.5,1.8-12.1c6.6-3.6,15.7-1.8,15.7-1.8l-1.2-7.3c0,0-98.5-84.6-77.9-113.6c3.9-5.5,7.9-11.3,11.8-16.9l-15.5,1.4
				l-3.5,132.8l-0.4-0.1c0.9,2.6,7.1,22.3-6.7,19c-14.9-3.6-41.9-16.1-41.9-16.1S217,415.7,224.5,416.2z M283.8,187.7l29-8.4v-24.8
				l-31.5,33.5C282.8,187.8,283.8,187.7,283.8,187.7z"/>
		</g>
		<path d="M361.4,101c-23.5,0-42.5-19-42.5-42.5c0-23.5,19-42.5,42.5-42.5c23.5,0,42.5,19,42.5,42.5C403.9,82,384.9,101,361.4,101z"
			/>
		<path class="st10" d="M312.9,156l-32.5,34.5c-0.7,0.7-1.5,1.3-2.5,1.6c-0.9,0.3-1.9,0.4-2.9,0.3c-1-0.1-1.9-0.5-2.8-1
			c-0.8-0.6-1.5-1.3-2-2.2l-36-64.5l10-3.5l29.5,42.5c0,0,55.5-57.8,63.2-54.9C344.9,111.6,312.9,156,312.9,156z"/>
		<path class="st11" d="M374.9,275.3l47.9,124.1"/>
		<path class="st11" d="M351.3,275.3l-47.9,124.1"/>
		<path class="st12" d="M363.1,291.2c-30.7,0-55.5-6.7-55.5-15.1s24.9-15.1,55.5-15.1c30.7,0,55.5,6.7,55.5,15.1
			S393.8,291.2,363.1,291.2z"/>
		<path class="st13" d="M363.1,290.1c-30.7,0-55.5-6.7-55.5-15.1c0-8.3,24.9-15.1,55.5-15.1c30.7,0,55.5,6.7,55.5,15.1
			C418.7,283.3,393.8,290.1,363.1,290.1z"/>
		<path class="st11" d="M386.5,302.5l-52.4,16.1"/>
		<path class="st11" d="M339.8,302.5l52.4,16.1"/>
		<path class="st10" d="M362.5,107.5H346c-8.8,0-17.2,3.5-23.4,9.7c-6.2,6.2-9.7,14.6-9.7,23.4V228h94.5v-75.6
			c0-11.9-4.7-23.4-13.2-31.8S374.4,107.5,362.5,107.5z"/>
		<path class="st14" d="M407.4,228h-94.5v51.4h52.6c11.1,0,21.8-4.4,29.7-12.3c7.9-7.9,12.3-18.5,12.3-29.7V228z"/>
		<path class="st15" d="M406.2,143l-57.8,54.9h-63.8v-8.3l54.9-15.9l47-58C386.5,115.7,407.8,128.8,406.2,143z"/>
		<path class="st10" d="M406.2,141.8l-57.8,54.9h-63.8v-8.3l54.9-15.9l47-58C386.5,114.5,407.8,127.7,406.2,141.8z"/>
		<path class="st16" d="M284.5,188.5c0,0-30.7,2.4-22.5,8.3h22.5V188.5z"/>
		<path class="st16" d="M244.4,121.1c0,0-7.7-23-13-16.5c-5.3,6.5,3,20.1,3,20.1L244.4,121.1z"/>
		<path class="st15" d="M407.4,228v2.8l-94.5,0.2v-3H407.4z"/>
		<path class="st14" d="M333.9,282.7l-63.6,5.8l-3.5,129.8l-22.8-7.4c0,0-34-147.1-1.6-159.5C275,239,310.1,222.7,331,236
			C352,249.3,333.9,282.7,333.9,282.7z"/>
		<path class="st6" d="M330,242.8c0,0-34.9,17.7-39.6,37.8L330,242.8z"/>
		<path class="st14" d="M367.3,278.8L317.6,319l55.5,89.2l-23,6.5c0,0-96.3-82.7-76.2-111.1c20.1-28.4,40.2-61.4,65-62
			C363.7,241,367.3,278.8,367.3,278.8z"/>
		<path class="st15" d="M289.3,148.3l-12.4,21.3l-3-5.9L289.3,148.3z"/>
		<path class="st17" d="M373.2,408.2c0,0,18.3,14.2,4.1,18.9c-14.2,4.7-43.1,8.3-43.1,8.3s-4.7-8.3,1.8-11.8
			c6.5-3.5,15.4-1.8,15.4-1.8l-1.2-7.1L373.2,408.2z"/>
		<path class="st17" d="M266.3,417.9c0,0,8,22.3-6.5,18.8c-14.5-3.5-41-15.8-41-15.8s0.4-9.5,7.8-9.1c7.4,0.4,14,6.6,14,6.6l3.2-7.9
			L266.3,417.9z"/>
		<path class="st16" d="M360.2,86.8L360.2,86.8c6.5,0,11.8,5.3,11.8,11.8v11.8c0,6.5-5.3,11.8-11.8,11.8l0,0
			c-6.5,0-11.8-5.3-11.8-11.8V98.7C348.4,92.1,353.6,86.8,360.2,86.8z"/>
		<path class="st15" d="M360.2,88c3.1,0,6.1,1.2,8.4,3.5c2.2,2.2,3.5,5.2,3.5,8.4v4c-7.7,2.5-16,2.5-23.6,0v-4
			c0-3.1,1.2-6.1,3.5-8.4C354,89.3,357,88,360.2,88z"/>
		<path class="st16" d="M360.2,104.6c-20.9,0-37.8-16.9-37.8-37.8S339.3,29,360.2,29c20.9,0,37.8,16.9,37.8,37.8
			S381.1,104.6,360.2,104.6z"/>
		<path class="st15" d="M398,65c0,0-9.5,2.4-14.8-8.3c-5.3-10.7-9.5-16.6-31.3-10.3c-21.9,6.3-26.3,7.1-27.3,1.1
			c-0.7-4.1,7.1-14.1,12-20c2.4-2.9,6.4-4.6,10.7-4.6H372l14.8,6.8l11.2,9.8l2.4,13.2L398,65z"/>
		<path d="M398,63.9c0,0-9.5,2.4-14.8-8.3c-5.3-10.7-9.5-16.6-31.3-10.3c-21.9,6.3-26.3,7.1-27.3,1.1c-0.7-4.1,7.1-14.1,12-20
			c2.4-2.9,6.4-4.6,10.7-4.6H372l14.8,6.8l11.2,9.8l2.4,13.2L398,63.9z"/>
		<path class="st16" d="M394.1,71.5c-2.1,0-3.8-3.4-3.8-7.7s1.7-7.7,3.8-7.7s3.8,3.4,3.8,7.7S396.3,71.5,394.1,71.5z"/>
		<path d="M396.9,44c0.9-4.9,1.7-10.1,0.1-14.9c-0.8-2.3-2.1-4.3-3.8-6c-1.7-1.7-3.8-2.9-6.1-3.6c-3-0.9-6.2-0.9-9.2-1.9
			c-4.2-1.4-7.4-4.6-11.1-7c-3.2-2.2-6.7-3.9-10.4-4.9c-3.3-1-7.3-1.3-10,0.8c-2.3,1.8-3.1,4.9-5,7.2c-2.2,2.6-5.6,3.7-8.6,5.4
			c-3.7,2.1-6.9,5.1-9.2,8.6c-2.3,3.6-3.7,7.7-4.1,11.9c-0.1,1.3,0,2.8,1.1,3.5c0.7,0.3,1.4,0.5,2.2,0.4c15.1-0.2,30.2-0.4,45.3-1.8
			c4.7-0.4,9.4-1,14.1-0.8c7.3,0.3,14.4,2.3,20.7,5.8"/>
		<path class="st18" d="M462.3,381.2h52.3c10.7,0,19.4,8.7,19.4,19.4l0,0c0,10.7-8.7,19.4-19.4,19.4h-52.3
			c-10.7,0-19.4-8.7-19.4-19.4C443,389.9,451.6,381.2,462.3,381.2z"/>
		
			<linearGradient id="SVGID_5_" gradientUnits="userSpaceOnUse" x1="340.241" y1="-660.33" x2="340.241" y2="-655.02" gradientTransform="matrix(-1 0 0 -1 534 444)">
			<stop  offset="0" style="stop-color:#808080;stop-opacity:0.25"/>
			<stop  offset="0.5351" style="stop-color:#808080;stop-opacity:0.12"/>
			<stop  offset="1" style="stop-color:#808080;stop-opacity:0.1"/>
		</linearGradient>
		<path class="st19" d="M193.8,242.9c-0.2,0-0.4-0.1-0.6-0.3c-0.2-0.2-0.2-0.4-0.2-0.6c0-0.2,0.1-0.5,0.2-0.6
			c0.2-0.2,0.4-0.3,0.6-0.3c0.2,0,0.4,0.1,0.6,0.3c0.2,0.2,0.2,0.4,0.2,0.6c0,0.2-0.1,0.4-0.2,0.6
			C194.2,242.8,194,242.9,193.8,242.9z"/>
		<path class="st8" d="M63.7,203.2L2.3,421.9"/>
		<path class="st20" d="M2,196.8h331.8v12.9H2V196.8z"/>
		<path class="st21" d="M201.5,193.8h46.7c2.1,0,3.8,1.7,3.8,3.8l0,0c0,2.1-1.7,3.8-3.8,3.8h-46.7c-2.1,0-3.8-1.7-3.8-3.8
			C197.7,195.5,199.4,193.8,201.5,193.8z"/>
		<g class="st3">
			
				<linearGradient id="SVGID_6_" gradientUnits="userSpaceOnUse" x1="382.5815" y1="-31529" x2="382.5815" y2="-16762.9004" gradientTransform="matrix(-1 0 0 -1 534 444)">
				<stop  offset="0" style="stop-color:#808080;stop-opacity:0.25"/>
				<stop  offset="0.5351" style="stop-color:#808080;stop-opacity:0.12"/>
				<stop  offset="1" style="stop-color:#808080;stop-opacity:0.1"/>
			</linearGradient>
			<path class="st22" d="M100.5,108.2h101.8c9.2,0,16.7,7.5,16.7,16.7v60.1c0,9.2-7.5,16.7-16.7,16.7H100.5
				c-9.2,0-16.7-7.5-16.7-16.7v-60.1C83.9,115.6,91.3,108.2,100.5,108.2z"/>
		</g>
		<path class="st23" d="M104.4,109.9h96.3c8.8,0,15.9,7.1,15.9,15.9v60c0,8.8-7.1,15.9-15.9,15.9h-96.3c-8.8,0-15.9-7.1-15.9-15.9
			v-60C88.6,117,95.7,109.9,104.4,109.9z"/>
		<path class="st21" d="M102.7,109.9h96.3c8.8,0,15.9,7.1,15.9,15.9v60c0,8.8-7.1,15.9-15.9,15.9h-96.3c-8.8,0-15.9-7.1-15.9-15.9
			v-60C86.8,117,93.9,109.9,102.7,109.9z"/>
		<path class="st24" d="M144.8,159.2c-2.3,0-4.1-1.9-4.1-4.1c0-2.3,1.9-4.1,4.1-4.1s4.1,1.9,4.1,4.1
			C149,157.4,147.1,159.2,144.8,159.2z"/>
	</g>
</g>
</svg>
